<?xml version="1.0" standalone="no"?>
<!DOCTYPE svg PUBLIC "-//W3C//DTD SVG 20010904//EN"
 "http://www.w3.org/TR/2001/REC-SVG-20010904/DTD/svg10.dtd">
<svg version="1.0" xmlns="http://www.w3.org/2000/svg"
 width="657.000000pt" height="657.000000pt" viewBox="0 0 657.000000 657.000000"
 preserveAspectRatio="xMidYMid meet">

<g transform="translate(0.000000,657.000000) scale(0.100000,-0.100000)"
fill="#000000" stroke="none">
<path d="M3050 6564 c-495 -46 -853 -147 -1265 -357 -285 -145 -549 -335 -789
-567 -706 -684 -1064 -1638 -986 -2626 49 -614 272 -1199 647 -1702 81 -107
88 -115 93 -90 3 15 15 39 28 53 13 14 39 48 58 76 20 27 38 49 41 49 3 0 3
-34 0 -76 -5 -66 -11 -84 -42 -131 l-36 -54 40 -47 c61 -73 256 -261 357 -344
878 -724 2086 -943 3158 -571 152 53 345 136 466 201 117 63 329 195 361 225
15 13 33 26 41 29 32 13 231 181 352 298 577 560 923 1293 987 2095 14 182 7
521 -16 685 -31 224 -84 450 -106 450 -6 0 -9 -9 -6 -20 3 -11 0 -20 -6 -20
-7 0 -6 -5 3 -11 11 -7 12 -12 3 -15 -8 -4 -10 -20 -6 -49 3 -27 0 -56 -8 -75
-12 -26 -19 -30 -52 -30 -23 0 -36 4 -32 10 6 10 5 11 -32 15 -12 1 -47 15
-76 30 -35 19 -60 26 -72 21 -17 -6 -15 -10 15 -37 19 -16 72 -48 117 -70 71
-36 81 -44 73 -59 -6 -12 -17 -16 -30 -13 -13 3 -20 0 -20 -9 0 -7 -8 -15 -17
-16 -10 -1 -27 -3 -38 -4 -21 -3 -65 -53 -65 -73 0 -16 -35 -47 -43 -38 -4 3
-7 1 -7 -6 0 -7 -4 -10 -9 -7 -4 3 -17 -1 -27 -9 -10 -8 -30 -14 -44 -15 -36
0 -113 25 -118 38 -2 7 -12 12 -22 12 -11 0 -39 6 -62 14 -24 8 -59 17 -78 20
-29 5 -39 14 -55 48 -20 42 -45 62 -45 35 0 -24 32 -79 49 -84 9 -2 24 -15 33
-28 14 -18 15 -25 5 -33 -8 -7 -20 -4 -38 12 -40 34 -60 84 -65 161 -3 51 -13
88 -38 140 -18 38 -38 99 -45 135 -7 36 -14 72 -17 81 -3 12 6 19 38 27 89 21
154 35 168 37 9 0 21 5 28 9 19 12 27 -1 12 -19 -10 -12 -9 -15 6 -15 11 0 29
15 42 33 12 17 22 26 22 20 0 -6 9 -11 21 -10 23 2 79 60 79 81 0 8 14 19 31
25 31 11 32 12 26 64 -3 36 -1 58 9 71 9 14 11 23 3 32 -7 9 -2 16 20 25 29
13 47 36 36 47 -2 3 -24 -2 -47 -11 -24 -8 -58 -18 -75 -22 -18 -4 -33 -11
-33 -16 0 -5 -7 -9 -15 -9 -9 0 -34 -9 -55 -20 -22 -11 -57 -22 -77 -24 -21
-1 -49 -7 -63 -13 -14 -6 -61 -18 -105 -27 -44 -10 -118 -26 -165 -36 -47 -11
-166 -33 -265 -50 -98 -17 -182 -33 -185 -35 -3 -2 -53 -9 -110 -15 -58 -6
-118 -13 -135 -15 -16 -2 -55 -7 -85 -10 -30 -4 -64 -9 -75 -11 -11 -2 -72
-11 -135 -19 -63 -8 -135 -19 -160 -25 -50 -11 -280 -45 -409 -61 -100 -13
-105 -10 -115 74 -3 28 -14 90 -23 136 -16 83 -15 86 5 125 25 48 52 202 52
299 0 46 6 82 19 110 14 31 17 52 12 77 -9 44 -38 59 -179 90 -92 21 -105 27
-114 49 -16 40 -48 200 -48 238 0 32 12 44 25 23 11 -18 31 -10 42 18 10 25
11 25 12 4 1 -27 26 -39 45 -22 11 8 20 9 36 0 25 -13 54 4 46 27 -3 7 -2 21
2 31 5 13 8 8 12 -18 5 -35 5 -35 55 -34 28 0 90 4 138 8 86 8 89 9 99 37 12
35 31 39 22 5 -7 -30 24 -45 43 -20 7 9 10 20 8 24 -7 11 15 81 24 75 5 -3 5
-21 1 -41 -13 -58 -7 -64 71 -64 63 0 70 2 78 23 15 40 31 117 31 152 0 26 9
45 36 74 33 37 35 42 25 78 -8 31 -17 102 -27 193 0 8 -2 41 -3 73 -1 43 -5
57 -16 57 -12 0 -15 -14 -15 -67 0 -71 -9 -79 -17 -16 -7 54 -23 66 -23 17 0
-21 9 -57 19 -80 10 -23 22 -61 26 -85 4 -24 14 -53 21 -64 18 -26 18 -45 -1
-45 -9 0 -15 9 -15 24 0 14 -4 28 -10 31 -5 3 -10 17 -10 30 0 13 -7 28 -15
33 -14 7 -24 37 -56 168 -9 39 -26 53 -61 54 -16 0 -7 -50 10 -59 19 -10 57
-125 48 -148 -10 -24 -33 1 -40 45 -3 20 -13 51 -22 67 -9 17 -22 45 -28 64
-10 27 -18 35 -44 37 -30 4 -43 -8 -23 -21 15 -9 41 -109 40 -157 l0 -43 -15
50 c-8 28 -20 68 -26 90 -13 48 -37 80 -58 79 -8 -1 -21 -2 -29 -3 -9 -1 -11
-9 -7 -25 3 -13 2 -35 -3 -48 -8 -21 -10 -19 -22 25 -12 44 -39 66 -39 31 0
-11 -5 -14 -16 -10 -14 6 -16 1 -10 -35 4 -23 12 -51 18 -63 7 -11 11 -25 9
-31 -2 -5 -5 -64 -7 -130 -1 -66 -3 -130 -3 -142 -1 -23 -26 -32 -33 -12 -2 6
2 68 9 138 8 69 11 140 8 156 -3 17 -7 43 -10 59 -3 16 -9 45 -15 66 -9 33
-14 37 -39 36 -16 -1 -32 -3 -34 -6 -7 -7 10 -171 24 -238 8 -41 14 -52 26
-48 10 4 13 1 9 -14 -3 -11 -8 -29 -12 -39 -3 -12 -11 -18 -20 -14 -8 3 -14
-1 -14 -11 0 -37 -19 -12 -25 32 -24 194 -53 322 -71 322 -25 0 -15 -76 30
-235 18 -61 25 -164 12 -165 -9 -1 -44 131 -62 233 -4 21 -10 35 -14 30 -4 -4
-1 -66 7 -136 8 -71 12 -131 9 -135 -25 -25 -51 127 -51 300 1 104 -10 127
-39 84 -11 -18 -12 -32 -6 -62 5 -21 9 -59 9 -84 0 -44 0 -44 -14 -20 -8 14
-14 34 -15 46 -1 56 -34 120 -85 162 -11 9 -15 33 -15 90 0 42 -7 131 -15 197
-8 65 -15 125 -15 132 0 10 -39 13 -177 11 -98 0 -194 -3 -213 -4z m465 -521
c9 -57 11 -70 33 -178 34 -169 46 -245 38 -252 -14 -15 -24 17 -40 132 -10 66
-24 149 -31 185 -24 109 -29 150 -17 150 6 0 14 -17 17 -37z m312 15 c-3 -8
-6 -5 -6 6 -1 11 2 17 5 13 3 -3 4 -12 1 -19z m211 -30 c6 -24 18 -71 26 -106
9 -34 19 -99 22 -143 6 -67 4 -81 -7 -77 -9 3 -16 28 -21 69 -4 35 -16 111
-26 169 -17 91 -19 130 -7 130 2 0 8 -19 13 -42z m-190 -78 l0 -25 -8 25 c-4
14 -8 34 -8 45 l-1 20 9 -20 c5 -11 8 -31 8 -45z m287 30 c3 -5 1 -10 -4 -10
-6 0 -11 5 -11 10 0 6 2 10 4 10 3 0 8 -4 11 -10z m-125 -156 c11 -65 20 -120
20 -121 0 -2 -4 -3 -10 -3 -19 0 -52 173 -43 224 3 15 7 25 9 23 3 -2 13 -58
24 -123z m-943 19 l25 -28 -6 -140 c-3 -77 -11 -158 -16 -180 -5 -22 -10 -68
-10 -102 0 -34 -4 -65 -10 -68 -5 -3 -10 2 -10 12 -1 10 -7 80 -14 155 -12
125 -7 300 9 316 2 2 -2 17 -11 33 -13 26 -13 29 1 29 9 0 27 -12 42 -27z
m877 -54 c-3 -5 2 -29 11 -53 22 -57 15 -97 -8 -46 -14 32 -21 87 -17 135 1
18 2 18 11 -3 5 -13 6 -28 3 -33z m286 -21 c0 -4 -5 -10 -12 -14 -12 -8 -40
24 -32 37 5 9 44 -11 44 -23z m-77 -39 c-16 -16 -33 -2 -33 29 l0 26 22 -22
c16 -16 19 -25 11 -33z m-323 -34 c0 -19 -4 -35 -10 -35 -11 0 -13 30 -4 54
10 25 14 19 14 -19z m471 22 c-1 -4 -1 -15 -1 -24 0 -15 -2 -16 -10 -3 -13 20
-13 43 1 38 6 -2 10 -7 10 -11z m-41 -53 c22 -38 24 -85 3 -91 -7 -3 -14 14
-19 44 -3 26 -11 56 -16 66 -17 34 10 17 32 -19z m-118 -9 c-5 -50 -14 -64
-22 -35 -15 46 -12 72 8 68 12 -3 16 -12 14 -33z m-2848 -9 c52 -26 108 -68
209 -159 57 -52 114 -123 105 -132 -2 -2 -20 -7 -38 -10 -19 -2 -46 -7 -60
-10 -30 -7 -118 53 -145 98 -9 15 -23 27 -31 27 -8 0 -17 7 -21 16 -4 11 -14
14 -34 10 -32 -6 -64 18 -54 42 3 8 0 21 -7 30 -7 8 -12 17 -10 19 7 10 0 34
-10 32 -7 -1 -22 -1 -32 0 -19 1 -19 1 0 22 18 20 48 37 68 38 5 1 32 -10 60
-23z m2913 -59 c-4 -26 -11 -55 -16 -65 -8 -13 -10 -5 -11 34 0 28 -3 67 -7
85 l-6 34 23 -20 c19 -17 21 -27 17 -68z m-690 31 c-3 -7 -5 -2 -5 12 0 14 2
19 5 13 2 -7 2 -19 0 -25z m202 -24 c22 -28 27 -59 11 -69 -5 -3 -16 7 -23 22
-36 70 -28 98 12 47z m-79 -9 c13 -15 21 -65 11 -65 -9 0 -41 55 -41 69 0 15
15 14 30 -4z m-70 -24 c13 -26 13 -31 -4 -31 -13 0 -26 20 -26 41 0 16 19 10
30 -10z m286 -28 c-10 -10 -19 5 -10 18 6 11 8 11 12 0 2 -7 1 -15 -2 -18z
m-2652 -8 c8 -23 -14 -29 -29 -9 -7 11 -11 22 -9 26 7 10 32 -1 38 -17z m1311
-134 c7 -12 -12 -24 -25 -16 -11 7 -4 25 10 25 5 0 11 -4 15 -9z m-220 -36 c0
-5 -13 -13 -30 -16 -23 -5 -25 -7 -7 -8 12 0 22 -6 22 -11 0 -12 -53 -1 -58
12 -2 4 -10 8 -18 8 -23 0 -16 18 9 23 35 7 82 3 82 -8z m247 -41 c15 -4 17
-9 7 -20 -6 -7 -15 -12 -19 -9 -4 2 -12 -7 -18 -20 -7 -14 -17 -25 -24 -25
-10 0 -10 2 1 9 8 5 11 16 6 30 -3 12 -3 36 1 54 7 31 7 31 17 10 5 -13 18
-25 29 -29z m281 31 c20 -3 37 -10 37 -14 0 -5 11 -8 25 -8 14 0 34 -8 44 -17
9 -9 21 -16 25 -16 4 0 26 -16 49 -35 22 -19 50 -35 62 -35 13 0 27 -10 36
-27 8 -15 40 -52 72 -82 l57 -56 -24 -26 c-22 -24 -29 -25 -102 -23 -77 2 -79
3 -76 26 1 14 -7 34 -19 47 -14 14 -22 37 -23 60 -1 28 -6 38 -27 48 -15 7
-34 24 -43 38 -9 14 -25 25 -36 25 -12 0 -20 7 -20 16 0 13 -7 15 -38 9 -38
-6 -39 -6 -37 24 1 16 -1 30 -4 29 -18 -2 -30 4 -35 17 -4 12 0 14 17 11 12
-3 39 -8 60 -11z m-486 -51 c-9 -9 -28 6 -21 18 4 6 10 6 17 -1 6 -6 8 -13 4
-17z m123 11 c0 -9 -6 -12 -15 -9 -8 4 -12 10 -9 15 8 14 24 10 24 -6z m168
-10 c-2 -13 -9 -19 -20 -17 -10 2 -18 -2 -18 -8 0 -6 -4 -8 -10 -5 -14 9 -12
42 3 48 28 10 48 3 45 -18z m82 6 c0 -5 -7 -11 -15 -15 -15 -5 -20 5 -8 17 9
10 23 9 23 -2z m-570 -151 c0 -4 -6 -13 -14 -19 -10 -9 -16 -8 -26 3 -6 9 -9
19 -6 25 7 10 46 3 46 -9z m-90 -35 c0 -8 -4 -15 -10 -15 -5 0 -10 7 -10 15 0
8 5 15 10 15 6 0 10 -7 10 -15z m440 -10 c0 -8 -4 -15 -10 -15 -5 0 -10 7 -10
15 0 8 5 15 10 15 6 0 10 -7 10 -15z m-474 -9 c20 -20 19 -67 -1 -60 -9 4 -15
0 -15 -10 0 -9 -4 -16 -8 -16 -4 0 -8 -9 -9 -19 -2 -24 -35 -58 -71 -73 -15
-6 -22 -12 -14 -15 18 -7 15 -23 -6 -23 -10 0 -23 -5 -30 -12 -6 -6 -15 -8
-19 -4 -4 4 -1 11 7 16 9 6 14 21 12 38 -2 17 3 34 12 42 9 7 16 21 16 32 0
29 18 58 37 58 10 0 14 6 10 20 -4 17 0 20 24 20 16 0 29 5 29 10 0 14 9 12
26 -4z m1595 3 c34 -12 79 -46 79 -60 0 -10 -66 -29 -97 -29 -18 0 -23 6 -23
28 0 15 -4 34 -9 42 -19 29 -2 36 50 19z m-1874 -29 c8 -12 9 -21 3 -25 -6 -3
-10 -1 -10 5 0 6 -8 10 -17 9 -33 -3 -43 1 -43 16 0 23 53 19 67 -5z m339 5
c17 -16 14 -18 -10 -9 -9 3 -16 10 -16 15 0 13 9 11 26 -6z m374 0 c0 -9 -9
-15 -25 -15 -14 0 -25 5 -25 11 0 6 9 8 21 4 15 -5 19 -4 15 4 -4 6 -2 11 3
11 6 0 11 -7 11 -15z m90 7 c0 -15 -42 -34 -53 -23 -7 7 -3 13 14 20 30 12 39
13 39 3z m730 -22 c0 -5 -5 -10 -11 -10 -5 0 -7 5 -4 10 3 6 8 10 11 10 2 0 4
-4 4 -10z m-1650 -35 c0 -8 -4 -15 -10 -15 -5 0 -10 7 -10 15 0 8 5 15 10 15
6 0 10 -7 10 -15z m-15 -43 c-6 -4 -35 -5 -65 -2 l-55 5 50 17 c43 14 52 14
65 2 8 -8 10 -17 5 -22z m1025 28 c0 -7 13 -8 35 -4 43 8 106 -14 81 -28 -20
-11 -21 -29 -2 -22 8 3 22 -5 31 -18 l17 -23 -5 23 c-5 23 -5 23 19 7 14 -9
34 -13 48 -9 22 5 26 0 46 -60 18 -54 19 -69 9 -88 l-12 -22 -15 22 c-19 29
-32 28 -32 -2 0 -14 -5 -28 -11 -32 -6 -3 -8 -15 -6 -26 3 -11 -2 -26 -14 -36
-12 -12 -18 -32 -19 -62 -1 -89 -3 -95 -41 -98 -71 -5 -108 -23 -121 -59 -16
-44 -38 -43 -38 2 0 27 -6 38 -27 52 -35 22 -50 40 -68 81 -14 31 -15 32 -63
26 -41 -5 -50 -3 -56 11 -5 13 -14 16 -35 12 -20 -4 -34 0 -50 14 -28 27 -27
36 9 43 17 3 43 9 60 12 37 7 48 23 27 39 -24 17 -21 23 8 21 16 0 25 -7 25
-18 0 -20 14 -25 52 -20 27 4 38 25 18 37 -5 3 -7 12 -4 19 6 16 -12 31 -48
40 -36 8 -48 49 -23 76 16 18 16 19 -4 32 -29 18 -26 28 7 28 15 0 33 5 39 11
6 6 17 8 24 3 9 -5 8 -9 -7 -15 -18 -7 -18 -8 1 -8 14 -1 26 -14 37 -42 15
-35 20 -40 32 -30 17 15 12 52 -9 63 -8 5 -19 18 -25 28 -10 19 -9 19 16 8 22
-10 27 -9 35 5 11 18 59 24 59 7z m770 -130 c0 -6 14 -16 30 -22 20 -6 32 -19
37 -36 3 -15 12 -36 19 -47 7 -11 22 -64 33 -118 12 -54 28 -115 36 -134 8
-20 15 -44 15 -54 0 -11 5 -19 10 -19 20 0 9 -18 -15 -24 -31 -8 -32 -22 -2
-32 22 -6 57 -37 57 -50 0 -13 -77 9 -140 41 -36 19 -78 37 -95 40 -16 4 -50
14 -74 21 -47 16 -70 7 -72 -25 0 -13 -2 -12 -8 3 -4 12 -18 20 -34 20 -23 1
-24 0 -13 -14 8 -8 13 -34 12 -58 -1 -41 0 -43 37 -54 41 -12 44 -18 21 -53
-8 -13 -14 -36 -12 -52 2 -21 -3 -30 -20 -39 -15 -7 -20 -14 -13 -19 6 -3 8
-12 4 -18 -4 -7 -6 -19 -5 -29 2 -9 -2 -19 -8 -23 -17 -10 -39 13 -33 35 3 11
2 20 -2 20 -12 0 -34 -33 -35 -52 0 -12 -6 -16 -22 -12 -28 5 -95 -16 -80 -25
15 -9 2 -27 -25 -35 -27 -8 -29 -19 -9 -35 12 -10 19 -8 35 8 12 12 23 21 25
21 2 0 4 -17 4 -38 1 -29 -3 -38 -16 -38 -9 0 -28 -3 -42 -6 -17 -5 -32 -1
-48 12 -20 17 -22 24 -14 47 5 16 15 27 21 25 17 -3 25 26 11 43 -6 7 -10 25
-8 39 2 14 -1 24 -7 23 -5 -1 -9 -13 -7 -25 2 -16 -1 -21 -8 -17 -7 4 -10 18
-7 31 2 13 1 24 -4 24 -4 0 -10 -12 -12 -27 -2 -16 -3 -7 0 19 3 43 2 47 -27
60 -35 15 -34 32 1 34 36 2 47 -5 41 -28 -4 -18 -3 -19 17 -9 11 7 21 19 21
29 0 9 3 27 6 40 5 18 3 21 -10 16 -9 -3 -14 -10 -11 -14 6 -10 -14 -25 -22
-16 -3 3 0 13 7 21 11 14 11 21 -5 48 -13 21 -15 32 -7 35 7 2 12 13 12 24 0
20 1 20 47 1 20 -8 29 28 10 42 -9 6 -21 23 -26 36 l-9 24 -11 -27 c-12 -31
-21 -36 -21 -13 0 9 11 26 25 39 14 13 25 28 25 34 0 6 21 20 46 31 44 20 45
22 39 53 -4 18 -11 37 -16 43 -16 17 -10 45 10 45 11 0 21 -3 23 -7 6 -15 99
-73 115 -73 9 0 24 -6 32 -13 9 -7 28 -18 44 -25 23 -10 27 -9 27 4 0 9 -9 33
-20 53 -71 134 -79 380 -12 393 18 3 132 -102 132 -122z m-565 80 c3 -5 2 -10
-4 -10 -5 0 -13 5 -16 10 -3 6 -2 10 4 10 5 0 13 -4 16 -10z m215 -18 c0 -15
-2 -15 -10 -2 -13 20 -13 33 0 25 6 -3 10 -14 10 -23z m-675 8 c3 -5 2 -10 -4
-10 -5 0 -13 5 -16 10 -3 6 -2 10 4 10 5 0 13 -4 16 -10z m1371 -6 c-3 -9 0
-41 9 -72 21 -85 20 -186 -3 -262 -32 -105 -37 -114 -83 -138 l-44 -23 33 29
c26 23 32 36 32 70 0 23 -6 61 -14 84 -8 24 -17 63 -21 88 -4 25 -15 74 -26
108 -10 35 -17 68 -14 72 3 5 28 14 56 21 28 7 54 19 56 26 3 7 10 13 15 13 6
0 7 -7 4 -16z m-1340 -31 c-10 -10 -19 5 -10 18 6 11 8 11 12 0 2 -7 1 -15 -2
-18z m-909 -15 c-3 -7 -5 -2 -5 12 0 14 2 19 5 13 2 -7 2 -19 0 -25z m50 16
c-3 -3 -12 -4 -19 -1 -8 3 -5 6 6 6 11 1 17 -2 13 -5z m666 -43 c-18 -26 -29
-35 -31 -25 -5 21 25 64 44 64 12 0 9 -9 -13 -39z m922 8 c4 -13 0 -37 -11
-60 -20 -40 -34 -50 -34 -24 0 8 -4 15 -10 15 -5 0 -10 7 -10 15 0 8 -6 24
-12 35 -11 17 -10 22 2 30 28 18 68 12 75 -11z m-775 -3 c0 -3 -4 -8 -10 -11
-5 -3 -10 -1 -10 4 0 6 5 11 10 11 6 0 10 -2 10 -4z m-973 -46 c32 0 35 -12 7
-27 -37 -18 -49 -16 -61 10 -15 33 -5 52 16 33 10 -9 27 -16 38 -16z m223 -30
c0 -5 -4 -10 -10 -10 -5 0 -10 5 -10 10 0 6 5 10 10 10 6 0 10 -4 10 -10z
m752 -25 c0 -5 -5 -11 -11 -13 -6 -2 -11 4 -11 13 0 9 5 15 11 13 6 -2 11 -8
11 -13z m-114 -64 c3 -8 -1 -12 -9 -9 -7 2 -15 10 -17 17 -3 8 1 12 9 9 7 -2
15 -10 17 -17z m-393 -1 c-3 -5 -16 -10 -28 -10 -18 0 -19 2 -7 10 20 13 43
13 35 0z m-55 -24 c0 -8 -5 -16 -11 -18 -6 -2 1 -16 15 -31 23 -24 23 -27 6
-27 -10 0 -22 -4 -25 -10 -3 -5 3 -10 14 -10 12 0 21 -4 21 -9 0 -5 10 -7 22
-3 14 3 19 2 14 -6 -5 -8 0 -12 13 -12 25 0 25 -41 -1 -48 -10 -2 -18 -8 -18
-13 0 -5 6 -6 14 -3 8 3 17 1 21 -5 4 -7 -10 -11 -39 -11 -35 0 -44 3 -40 14
3 8 14 16 24 19 13 3 17 11 13 25 -6 25 -30 36 -40 18 -27 -45 -91 -14 -95 46
-2 24 -8 38 -16 38 -8 0 -12 8 -10 18 6 30 118 57 118 28z m437 -78 c-3 -8 -6
-5 -6 6 -1 11 2 17 5 13 3 -3 4 -12 1 -19z m-87 2 c0 -5 -2 -10 -4 -10 -3 0
-8 5 -11 10 -3 6 -1 10 4 10 6 0 11 -4 11 -10z m-746 -64 c-3 -8 2 -16 12 -18
21 -4 26 -45 6 -53 -31 -11 -47 34 -33 93 1 2 5 1 11 -3 5 -3 7 -12 4 -19z
m317 -69 c-18 -18 -38 8 -21 28 12 15 14 15 23 0 6 -11 5 -21 -2 -28z m519
-60 c55 -82 96 -116 185 -150 54 -20 172 -27 238 -14 31 7 37 5 37 -9 0 -17
-112 -134 -128 -134 -11 0 -25 -30 -18 -37 7 -8 86 41 86 54 0 11 53 43 73 43
5 0 7 -9 4 -20 -3 -12 2 -27 11 -37 9 -9 18 -31 19 -50 2 -32 -9 -44 -22 -23
-20 32 -64 -20 -66 -77 0 -16 -3 -22 -6 -13 -9 21 -29 40 -43 40 -7 0 -9 -7
-6 -16 5 -13 2 -15 -14 -11 -13 3 -25 -2 -35 -16 -13 -18 -12 -22 3 -33 14
-10 15 -15 5 -25 -11 -11 -13 -10 -13 2 0 12 -10 15 -41 13 -50 -3 -58 -10
-36 -31 16 -16 17 -16 17 0 0 12 7 16 25 15 27 -3 32 -18 13 -48 -10 -15 -9
-22 5 -38 15 -16 15 -20 1 -40 -14 -20 -14 -23 0 -28 20 -8 21 -53 3 -78 -13
-18 -15 -18 -49 -2 -30 14 -36 22 -32 41 4 22 1 24 -38 22 -30 -1 -42 2 -40
11 4 21 -25 25 -52 7 -25 -16 -26 -16 -26 1 0 31 -29 54 -55 44 -32 -12 -65
-1 -65 21 0 12 -10 21 -25 25 -14 3 -22 10 -19 15 3 5 -2 19 -10 31 -9 12 -16
17 -16 10 0 -6 -7 -12 -15 -12 -8 0 -15 7 -15 15 0 8 -3 14 -7 14 -27 -4 -43
3 -43 20 0 15 -7 18 -36 17 -22 -1 -39 4 -41 12 -3 7 5 12 20 12 17 0 26 7 30
21 5 18 2 20 -18 15 -26 -7 -50 16 -42 38 8 20 -3 27 -24 15 -11 -5 -19 -20
-19 -32 l0 -21 -22 23 c-17 17 -19 25 -10 28 21 8 35 55 20 65 -20 12 -38 9
-38 -7 0 -18 -37 -40 -42 -24 -5 14 -77 20 -100 7 -24 -12 -23 3 1 33 17 21
21 22 50 9 44 -18 65 2 25 24 -18 9 -23 16 -14 17 8 1 -1 5 -20 8 -20 4 -34
12 -32 19 1 7 -5 12 -13 12 -16 0 -38 34 -28 44 11 11 35 7 47 -8 14 -17 106
-30 106 -15 0 6 -8 13 -18 15 -20 6 -55 61 -46 75 8 14 32 11 42 -6 7 -14 11
-13 27 5 10 11 24 20 32 20 7 0 13 6 13 14 0 23 -50 17 -60 -8 -5 -11 -9 -16
-9 -9 -1 6 -8 19 -17 27 -14 15 -14 16 3 14 33 -2 53 2 53 12 0 6 -6 10 -14
10 -20 0 -31 19 -17 33 7 7 18 7 38 -3 16 -8 33 -15 38 -15 21 -2 75 -30 79
-42 3 -7 -1 -10 -10 -6 -7 3 -14 0 -14 -6 0 -14 21 -14 56 -1 20 8 29 8 35 -1
7 -13 29 -4 29 12 0 6 -13 15 -30 20 -33 12 -41 39 -11 39 11 0 21 9 25 22 4
18 8 20 17 11 9 -9 9 -16 -1 -28 -7 -9 -8 -15 -2 -15 6 0 21 12 34 28 18 21
74 53 85 48 0 -1 24 -36 53 -79z m-876 57 c15 -6 15 -8 -1 -19 -21 -16 -34
-10 -26 10 6 17 6 17 27 9z m623 -30 c-3 -3 -12 -4 -19 -1 -8 3 -5 6 6 6 11 1
17 -2 13 -5z m376 -46 c25 -18 47 -23 102 -25 39 -1 81 -2 95 -2 14 0 48 1 75
3 28 2 57 0 65 -5 8 -5 11 -9 6 -9 -5 0 -3 -6 3 -14 7 -8 21 -12 31 -9 30 8
24 -3 -16 -28 -46 -28 -161 -31 -249 -5 -64 19 -155 79 -155 102 0 19 7 18 43
-8z m877 -8 c0 -5 -5 -10 -11 -10 -5 0 -7 5 -4 10 3 6 8 10 11 10 2 0 4 -4 4
-10z m-1548 -15 c0 -5 -5 -11 -11 -13 -6 -2 -11 4 -11 13 0 9 5 15 11 13 6 -2
11 -8 11 -13z m-506 -19 c19 -19 2 -30 -33 -21 -24 6 -25 7 -7 20 24 18 23 18
40 1z m54 -64 l25 -10 -28 -11 c-16 -6 -39 -11 -52 -11 -28 0 -45 20 -18 21
10 0 13 3 6 6 -7 2 -13 8 -13 13 0 10 45 5 80 -8z m78 -133 c-2 -6 -7 -10 -11
-10 -4 1 -14 1 -22 1 -8 0 -15 5 -15 10 0 6 12 10 26 10 14 0 24 -5 22 -11z
m2497 -177 c9 -103 -7 -191 -41 -223 l-23 -21 4 68 c5 87 12 140 25 184 5 19
10 51 10 70 0 65 18 10 25 -78z m-2070 38 c3 -5 1 -10 -4 -10 -6 0 -11 5 -11
10 0 6 2 10 4 10 3 0 8 -4 11 -10z m1361 -6 c-3 -9 -6 -20 -6 -25 0 -5 -4 -9
-9 -9 -5 0 -8 11 -8 25 0 15 5 25 14 25 10 0 13 -6 9 -16z m-356 -34 c0 -16
-4 -30 -9 -30 -13 0 -21 27 -15 45 10 25 24 17 24 -15z m355 -40 c3 -5 1 -10
-4 -10 -6 0 -11 5 -11 10 0 6 2 10 4 10 3 0 8 -4 11 -10z m1385 -4 c0 -7 8
-16 18 -18 27 -7 27 -55 -1 -70 -12 -7 -29 -12 -39 -13 -19 0 -38 -15 -19 -15
7 0 -2 -12 -21 -27 -18 -16 -35 -31 -36 -36 -4 -8 -56 -37 -69 -38 -5 -1 -24
-13 -43 -28 -48 -37 -89 -56 -97 -46 -5 4 -2 10 5 12 6 3 12 10 12 16 -1 7 -9
2 -19 -10 -11 -13 -36 -27 -58 -32 -32 -8 -34 -9 -10 -10 44 -2 41 -7 -56 -78
-16 -12 -34 -20 -38 -17 -5 3 -9 0 -9 -6 0 -6 -4 -9 -9 -6 -5 3 -11 -3 -14
-14 -7 -28 -36 -25 -47 5 -5 14 -19 85 -30 158 -34 215 -34 209 -19 206 23 -4
125 10 265 37 72 13 164 26 203 28 39 2 74 6 78 9 12 13 53 7 53 -7z m40 4 c0
-5 -2 -10 -4 -10 -3 0 -8 5 -11 10 -3 6 -1 10 4 10 6 0 11 -4 11 -10z m44 -11
c-5 -9 1 -10 20 -5 33 8 34 -6 0 -24 -21 -12 -27 -12 -34 0 -9 15 -2 40 12 40
5 0 6 -5 2 -11z m76 7 c0 -3 -4 -8 -10 -11 -5 -3 -10 -1 -10 4 0 6 5 11 10 11
6 0 10 -2 10 -4z m-1640 -30 c0 -7 -6 -19 -14 -25 -11 -9 -15 -8 -20 4 -3 9
-2 13 4 10 6 -3 10 1 10 9 0 9 5 16 10 16 6 0 10 -6 10 -14z m60 -43 c0 -5 -5
-15 -10 -23 -8 -12 -10 -11 -10 8 0 12 5 22 10 22 6 0 10 -3 10 -7z m37 1 c-3
-3 -12 -4 -19 -1 -8 3 -5 6 6 6 11 1 17 -2 13 -5z m1934 -6 c34 -10 38 -14 33
-35 -4 -14 -2 -23 5 -23 6 0 11 8 11 18 0 12 12 5 41 -26 38 -40 41 -47 36
-85 -7 -51 -37 -77 -92 -76 -32 0 -37 2 -22 10 9 5 21 7 27 4 15 -9 57 24 64
50 8 32 -4 85 -19 85 -9 0 -12 -11 -8 -38 11 -84 -75 -98 -148 -24 -45 47 -48
64 -14 94 33 29 21 43 -16 18 -40 -29 -39 -71 1 -112 28 -27 38 -48 24 -48
-10 0 -34 28 -34 39 0 6 -5 11 -11 11 -5 0 -17 16 -24 35 -26 62 9 102 99 114
5 0 26 -4 47 -11z m1309 -60 c-1 -37 -27 -138 -40 -154 -20 -23 -41 -18 -35 9
2 12 9 40 14 62 5 22 11 48 15 58 3 9 8 24 11 32 7 24 35 18 35 -7z m-1760
-23 c0 -16 -47 -32 -58 -20 -9 9 37 47 49 39 5 -3 9 -12 9 -19z m-100 -60 c0
-13 -21 -25 -46 -25 -23 0 -16 30 9 39 25 10 37 6 37 -14z m-799 -86 c-12 -15
-21 -31 -21 -35 0 -31 -115 -131 -142 -122 -11 4 9 29 120 145 12 14 30 36 40
51 15 22 17 23 20 8 2 -10 -5 -31 -17 -47z m933 40 c45 -36 30 -59 -40 -59
-28 0 -34 4 -34 22 0 21 26 58 40 58 4 0 19 -9 34 -21z m390 -8 c3 -4 3 -11 0
-14 -8 -8 -34 3 -34 14 0 11 27 12 34 0z m-834 -31 c0 -5 -5 -10 -11 -10 -5 0
-7 5 -4 10 3 6 8 10 11 10 2 0 4 -4 4 -10z m1670 -11 c0 -5 -4 -9 -10 -9 -5 0
-10 7 -10 16 0 8 5 12 10 9 6 -3 10 -10 10 -16z m-614 -46 c55 -30 115 -92 92
-94 -7 -1 -20 -3 -28 -4 -8 -1 -25 -3 -37 -4 -13 0 -23 -8 -23 -16 0 -8 -11
-27 -25 -42 -14 -16 -31 -37 -39 -48 -14 -19 -15 -19 -67 5 -41 20 -53 22 -57
11 -2 -7 -27 -35 -55 -62 -49 -47 -52 -48 -74 -34 -14 10 -51 16 -96 18 l-72
2 -3 -32 c-4 -38 -2 -36 -38 -22 -37 14 -70 4 -77 -22 -4 -14 -10 -18 -19 -13
-7 5 -17 9 -23 9 -31 1 -62 48 -83 127 -9 34 -8 40 11 53 12 8 27 15 33 15 7
0 34 15 60 33 27 18 72 45 99 61 28 16 60 38 72 48 41 38 136 54 273 46 112
-6 130 -9 176 -35z m-1743 -129 c3 -4 0 -16 -8 -28 -17 -23 -20 -106 -5 -106
6 0 26 -15 44 -33 19 -19 41 -37 50 -40 14 -6 15 -10 4 -28 -11 -18 -11 -22 1
-27 10 -3 11 -6 1 -12 -9 -6 -7 -11 7 -18 18 -10 19 -17 11 -74 -5 -35 -6 -74
-3 -87 5 -18 -3 -31 -33 -60 -35 -33 -37 -40 -29 -66 7 -19 6 -34 -2 -47 -15
-23 -14 -28 4 -28 8 0 15 4 15 10 0 16 51 37 125 50 39 7 90 19 115 26 74 22
264 53 273 45 8 -8 -655 -232 -740 -250 -36 -7 -42 -6 -46 9 -3 10 0 23 6 29
11 11 -13 41 -33 41 -7 0 -21 11 -32 25 -11 14 -25 25 -31 25 -7 0 -26 14 -44
30 -21 19 -38 28 -48 23 -20 -7 -35 12 -35 43 0 12 -6 24 -14 27 -12 5 -13 12
-4 39 17 53 45 103 59 103 7 0 18 14 25 32 11 26 11 33 -1 43 -21 17 -19 36 5
53 12 8 20 18 18 23 -1 5 11 24 27 41 17 18 44 48 60 68 18 21 45 39 70 46 72
20 165 60 165 72 0 9 14 9 23 1z m1802 -4 c3 -5 -3 -10 -15 -10 -12 0 -18 5
-15 10 3 6 10 10 15 10 5 0 12 -4 15 -10z m315 -10 c17 -10 25 -6 -90 -46 -41
-14 -113 -36 -160 -50 -47 -14 -93 -27 -102 -30 -14 -4 -18 0 -18 18 0 28 9
42 33 51 9 3 17 15 17 26 0 20 11 24 95 34 64 8 211 6 225 -3z m-1750 -379 c0
-12 -20 -25 -27 -18 -7 7 6 27 18 27 5 0 9 -4 9 -9z m-840 -121 c0 -5 -5 -10
-11 -10 -5 0 -7 5 -4 10 3 6 8 10 11 10 2 0 4 -4 4 -10z m-1019 -249 c26 -12
53 -31 62 -43 19 -30 86 -98 95 -98 16 0 71 -69 78 -96 9 -38 41 -69 57 -56
14 11 47 12 47 1 0 -4 3 -14 6 -22 4 -11 -7 -19 -38 -29 -40 -14 -43 -18 -50
-59 -7 -46 -37 -125 -38 -99 -1 27 -17 45 -32 34 -7 -6 -28 -11 -46 -12 -30
-2 -32 -1 -22 18 6 11 9 20 8 21 -2 0 -13 2 -25 3 -33 4 -38 13 -19 34 21 24
12 49 -20 55 -26 5 -44 -11 -25 -22 13 -8 4 -41 -10 -41 -5 0 -9 -6 -9 -14 0
-20 -19 -31 -32 -18 -7 7 -5 18 6 33 24 35 21 57 -8 52 -21 -4 -24 -2 -21 26
1 17 4 34 7 37 3 3 3 14 1 25 -6 20 -6 20 -24 0 -11 -11 -19 -24 -19 -29 0 -5
-7 -15 -15 -22 -12 -10 -15 -9 -15 4 0 13 -4 15 -17 8 -10 -5 -24 -7 -32 -4
-10 3 -12 0 -8 -11 3 -9 -1 -30 -9 -46 -16 -32 -28 -43 -18 -16 4 8 1 15 -5
15 -6 0 -11 5 -11 10 0 6 7 10 16 10 11 0 15 6 11 20 -3 11 -1 20 5 20 5 0 6
5 2 11 -3 6 -2 14 3 18 6 4 5 17 -3 36 -7 17 -13 25 -14 19 0 -15 -86 -9 -106
7 -20 16 -18 32 9 61 27 29 15 48 -28 48 -21 0 -25 4 -20 19 3 11 1 23 -6 26
-13 9 -31 -15 -24 -33 9 -24 -15 -62 -52 -80 -62 -32 -106 -41 -121 -26 -21
23 -32 16 -26 -18 6 -33 6 -33 -10 -10 -21 27 -34 28 -52 5 -12 -17 -13 -17
-14 3 0 46 89 125 225 200 69 38 71 38 182 39 61 0 114 3 118 7 11 11 55 2
106 -21z m-321 -226 c0 -9 -9 -15 -25 -15 -24 0 -32 10 -18 23 12 13 43 7 43
-8z m3929 -284 c9 -6 10 -10 2 -16 -15 -8 -41 1 -41 15 0 12 20 13 39 1z m-39
-19 c0 -14 -11 -21 -26 -15 -21 8 -17 23 6 23 11 0 20 -4 20 -8z m300 -87 c0
-8 -6 -15 -14 -15 -20 0 -29 17 -14 23 22 9 28 7 28 -8z m-550 -5 c0 -5 -4
-10 -10 -10 -5 0 -10 5 -10 10 0 6 5 10 10 10 6 0 10 -4 10 -10z m-65 -37
c-25 -18 -31 -9 -8 14 10 10 20 15 22 9 2 -5 -4 -15 -14 -23z m115 -2 c0 -9
-24 -21 -43 -21 -6 0 -2 7 9 15 22 17 34 19 34 6z m-60 -25 c0 -3 -4 -8 -10
-11 -5 -3 -10 -1 -10 4 0 6 5 11 10 11 6 0 10 -2 10 -4z m-235 -46 c3 -5 -1
-10 -10 -10 -9 0 -13 5 -10 10 3 6 8 10 10 10 2 0 7 -4 10 -10z m540 0 c3 -5
-1 -10 -9 -10 -9 0 -16 5 -16 10 0 6 4 10 9 10 6 0 13 -4 16 -10z m235 -1 c11
-8 8 -9 -14 -4 -23 5 -27 3 -23 -9 4 -10 1 -16 -7 -16 -17 0 -38 24 -29 33 10
11 56 8 73 -4z m-500 -119 c0 -5 -4 -10 -9 -10 -6 0 -13 5 -16 10 -3 6 1 10 9
10 9 0 16 -4 16 -10z m230 -4 c0 -3 -4 -8 -10 -11 -5 -3 -10 -1 -10 4 0 6 5
11 10 11 6 0 10 -2 10 -4z m-4663 -113 c-2 -21 -4 -6 -4 32 0 39 2 55 4 38 2
-18 2 -50 0 -70z m3273 27 c0 -5 -11 -10 -25 -10 -14 0 -25 5 -25 10 0 6 11
10 25 10 14 0 25 -4 25 -10z m1640 -20 c0 -6 -7 -10 -15 -10 -8 0 -15 2 -15 4
0 2 -3 12 -7 21 -5 15 -3 16 15 6 12 -7 22 -16 22 -21z m-4964 -177 c-8 -15
-37 -53 -65 -83 l-50 -55 -1 85 0 85 46 45 c25 25 53 58 62 73 17 28 17 28 20
-47 2 -51 -2 -84 -12 -103z m4189 166 c10 -16 -3 -23 -18 -11 -8 7 -16 9 -19
6 -3 -3 -9 -1 -13 5 -4 7 4 11 19 11 14 0 28 -5 31 -11z m230 -9 c-3 -5 -10
-10 -16 -10 -5 0 -9 5 -9 10 0 6 7 10 16 10 8 0 12 -4 9 -10z m-1455 -100 c0
-5 -11 -10 -25 -10 -14 0 -25 5 -25 10 0 6 11 10 25 10 14 0 25 -4 25 -10z
m929 -14 c8 -10 9 -16 1 -21 -13 -8 -30 3 -30 21 0 18 14 18 29 0z m-2112
-140 c26 -59 30 -131 9 -139 -14 -6 -46 31 -46 53 0 6 -4 9 -9 6 -5 -3 -14 1
-21 9 -13 15 -7 135 7 159 8 12 31 -22 60 -88z m1363 35 c0 -6 -5 -13 -10 -16
-15 -9 -43 3 -35 15 8 13 45 13 45 1z m1233 -15 c21 -16 22 -26 2 -26 -8 0
-19 9 -25 20 -12 23 -3 25 23 6z m-1795 -23 c2 -8 -5 -13 -17 -13 -12 0 -21 6
-21 16 0 18 31 15 38 -3z m2042 7 c0 -5 -7 -10 -15 -10 -8 0 -15 5 -15 10 0 6
7 10 15 10 8 0 15 -4 15 -10z m-1050 -26 c0 -8 -4 -12 -10 -9 -5 3 -10 10 -10
16 0 5 5 9 10 9 6 0 10 -7 10 -16z m750 -125 c0 -5 -7 -9 -15 -9 -15 0 -20 12
-9 23 8 8 24 -1 24 -14z m477 -3 c7 -7 -14 -26 -29 -26 -4 0 -12 9 -18 19 -9
17 -7 19 15 17 14 -1 28 -6 32 -10z m-177 -92 c0 -8 -10 -14 -24 -14 -26 0
-41 14 -32 29 8 13 56 0 56 -15z m-3175 -25 c-11 -66 -57 -141 -75 -123 -16
16 -1 62 21 69 28 9 23 23 -6 17 -14 -2 -25 -8 -25 -13 0 -5 -7 -9 -15 -9 -8
0 -15 2 -15 4 0 2 -2 11 -5 18 -4 10 6 18 33 26 21 7 47 21 57 32 28 31 37 24
30 -21z m-1419 -69 c-13 -41 -14 -42 -15 -15 -1 41 10 78 20 68 5 -5 3 -29 -5
-53z m1288 -41 c26 -56 45 -103 43 -106 -5 -4 -79 135 -96 180 -6 15 -7 27 -2
27 4 0 29 -46 55 -101z m2430 86 c3 -9 0 -15 -8 -15 -8 0 -16 7 -20 15 -3 9 0
15 8 15 8 0 16 -7 20 -15z m443 -191 c-3 -3 -12 -4 -19 -1 -8 3 -5 6 6 6 11 1
17 -2 13 -5z m-507 -314 c0 -5 -4 -10 -10 -10 -5 0 -10 5 -10 10 0 6 5 10 10
10 6 0 10 -4 10 -10z"/>
<path d="M2838 5303 c7 -3 16 -2 19 1 4 3 -2 6 -13 5 -11 0 -14 -3 -6 -6z"/>
<path d="M2467 4933 c-11 -10 -8 -20 7 -26 10 -4 14 0 13 14 -1 20 -9 24 -20
12z"/>
<path d="M2790 4887 c0 -18 35 -58 44 -50 9 10 7 35 -3 29 -5 -3 -11 3 -14 14
-6 22 -27 27 -27 7z"/>
<path d="M3113 4223 c-21 -8 -15 -22 7 -16 11 3 20 9 20 14 0 10 -8 10 -27 2z"/>
<path d="M1910 4390 c0 -5 5 -10 10 -10 6 0 10 5 10 10 0 6 -4 10 -10 10 -5 0
-10 -4 -10 -10z"/>
<path d="M2040 4210 c0 -7 7 -10 15 -6 17 6 19 -7 5 -34 -15 -27 5 -35 35 -13
24 18 32 38 18 46 -22 13 -73 18 -73 7z"/>
<path d="M1948 4133 c7 -3 16 -2 19 1 4 3 -2 6 -13 5 -11 0 -14 -3 -6 -6z"/>
<path d="M2687 4103 c-3 -5 1 -17 9 -28 14 -18 14 -18 14 2 0 23 -15 39 -23
26z"/>
<path d="M2493 4035 c-15 -16 -17 -35 -5 -35 10 0 42 33 42 43 0 12 -25 7 -37
-8z"/>
<path d="M4500 3869 c0 -5 5 -7 10 -4 6 3 10 8 10 11 0 2 -4 4 -10 4 -5 0 -10
-5 -10 -11z"/>
<path d="M5000 3840 c0 -5 9 -10 21 -10 11 0 17 5 14 10 -3 6 -13 10 -21 10
-8 0 -14 -4 -14 -10z"/>
<path d="M4974 3786 c-16 -41 49 -96 95 -81 15 4 21 15 21 34 0 36 -19 51 -69
58 -32 4 -42 2 -47 -11z"/>
<path d="M1860 2379 c0 -5 5 -7 10 -4 6 3 10 8 10 11 0 2 -4 4 -10 4 -5 0 -10
-5 -10 -11z"/>
<path d="M4814 6148 c-6 -31 -7 -32 -15 -10 -5 12 -13 22 -19 22 -15 0 -12
-33 5 -56 21 -28 19 -46 -7 -42 -14 2 -28 15 -36 33 -35 81 -48 77 -45 -13 1
-47 -1 -58 -6 -37 -6 21 -10 25 -14 15 -17 -40 -7 -155 20 -228 11 -32 12 -47
4 -55 -16 -16 -28 1 -34 48 -9 71 -20 107 -33 112 -8 3 -14 16 -14 29 0 13 -4
32 -9 42 -5 9 -15 44 -22 76 -8 33 -20 62 -28 64 -27 9 10 -208 51 -295 10
-23 19 -50 18 -60 0 -10 -2 -34 -3 -54 -2 -40 -41 -94 -96 -136 -41 -32 -31
-11 15 29 18 16 36 41 41 56 18 56 4 164 -30 236 -9 17 -23 67 -32 111 -10 44
-19 86 -21 93 -4 16 -34 16 -34 -1 0 -20 60 -201 71 -211 5 -6 9 -21 9 -34 0
-17 -5 -23 -17 -20 -17 3 -20 10 -54 138 -11 41 -25 79 -30 85 -5 5 -9 17 -9
27 0 10 -7 18 -16 18 -13 0 -15 -6 -10 -27 4 -16 11 -49 16 -75 5 -25 15 -57
24 -70 19 -29 25 -99 9 -105 -7 -3 -14 11 -18 34 -4 21 -15 59 -26 85 -10 26
-19 56 -19 67 0 12 -4 21 -9 21 -16 0 -20 -41 -9 -103 6 -34 10 -73 9 -87 -1
-14 4 -47 10 -73 11 -46 10 -50 -14 -75 -34 -38 -42 -56 -62 -145 -13 -58 -14
-82 -6 -90 8 -8 11 -8 11 2 0 7 5 9 12 5 12 -8 123 -6 151 2 12 4 16 12 12 24
-4 12 1 22 13 29 24 13 32 5 32 -27 0 -24 2 -24 48 -19 40 5 183 16 271 21 26
1 43 26 18 26 -10 0 -13 7 -10 21 5 19 7 18 35 -10 59 -60 170 -32 148 37 -5
15 -11 45 -14 67 l-5 40 19 -24 c11 -13 20 -30 20 -38 0 -31 32 -83 51 -83 26
0 25 5 -22 96 -39 74 -77 189 -66 200 15 15 76 -55 92 -105 6 -20 5 -22 -13
-12 -12 6 -23 11 -26 11 -13 0 16 -62 55 -120 37 -54 51 -65 89 -76 25 -8 46
-14 48 -14 1 0 -2 9 -8 20 -6 11 -18 20 -28 20 -9 0 -35 26 -56 57 -26 37 -33
52 -19 42 32 -22 101 -81 138 -117 38 -36 57 -27 30 14 -9 14 -14 28 -11 31
11 11 37 -8 57 -42 20 -33 24 -35 77 -36 32 0 72 -2 90 -5 31 -4 33 -2 25 19
-4 12 -7 34 -7 48 1 19 -7 31 -30 44 -17 10 -73 60 -125 112 -52 51 -98 93
-103 93 -5 0 -13 11 -18 25 -12 32 -140 126 -162 119 -13 -4 -21 2 -28 20 -10
28 -30 35 -30 12 0 -7 -6 -19 -14 -25 -17 -15 -40 11 -33 38 2 10 0 27 -6 37
-9 16 -12 12 -21 -26 -17 -66 -35 -63 -33 6 3 74 -18 85 -28 15 -4 -27 -13
-55 -20 -61 -23 -19 -28 8 -15 72 11 50 11 61 -1 69 -21 13 -28 -1 -35 -69 -4
-39 -11 -62 -19 -62 -20 0 -25 27 -15 81 6 29 10 60 10 70 0 32 -28 21 -36
-13z m-54 -118 c0 -5 -2 -10 -4 -10 -3 0 -8 5 -11 10 -3 6 -1 10 4 10 6 0 11
-4 11 -10z m24 -88 c5 -13 15 -18 38 -16 46 3 88 -41 88 -93 0 -21 -4 -44 -9
-52 -9 -14 -15 7 -24 79 -3 19 -47 26 -58 8 -5 -7 -6 -37 -3 -65 7 -56 -12
-103 -40 -103 -14 0 -51 134 -41 150 9 14 32 12 38 -2 4 -10 8 -9 16 2 8 11 7
16 -4 18 -8 2 -15 13 -15 24 0 14 -5 18 -15 14 -8 -3 -22 -9 -30 -12 -25 -10
-17 19 13 43 33 27 39 28 46 5z m234 -237 c5 -77 7 -143 5 -147 -2 -5 -19 -8
-38 -8 -44 0 -65 29 -65 90 0 63 17 86 24 34 12 -76 21 -108 32 -111 18 -6 22
89 10 196 -8 67 -9 107 -2 127 l10 29 8 -35 c4 -19 12 -98 16 -175z m268 128
c57 -42 199 -201 190 -210 -4 -4 -20 1 -35 10 -16 9 -31 13 -33 8 -1 -5 -27 8
-57 28 -30 20 -61 41 -70 46 -9 6 -19 15 -23 20 -17 22 -7 -12 12 -43 56 -91
-15 -40 -83 60 -26 39 -45 73 -42 77 4 3 27 -16 51 -42 25 -26 49 -45 54 -42
12 8 65 -20 82 -43 17 -22 68 -55 75 -48 7 6 -76 116 -87 116 -12 0 -120 82
-120 92 0 19 41 5 86 -29z m-716 -108 c0 -16 -39 -65 -52 -65 -6 0 -6 6 2 15
7 8 14 29 16 47 1 18 3 35 3 37 2 9 31 -23 31 -34z m288 -74 l-3 -110 -22 27
c-12 15 -20 32 -18 39 2 6 -1 13 -8 16 -7 2 -4 18 10 48 11 24 24 54 27 67 14
43 17 21 14 -87z m-132 62 c-7 -17 -8 -17 -17 0 -12 21 -2 44 13 29 6 -6 8
-19 4 -29z m-236 12 c14 -17 6 -49 -11 -43 -13 4 -22 58 -10 58 5 0 14 -7 21
-15z m-60 -35 c0 -11 -4 -28 -9 -38 -26 -54 -41 -90 -47 -114 -9 -39 -27 -35
-21 5 14 94 77 214 77 147z m238 -23 c-7 -14 -13 -17 -16 -9 -6 19 6 44 18 37
7 -4 6 -14 -2 -28z m30 -47 c-7 -10 -14 -18 -15 -16 -6 6 9 36 18 36 5 0 4 -9
-3 -20z m72 10 c0 -5 -4 -10 -10 -10 -5 0 -10 5 -10 10 0 6 5 10 10 10 6 0 10
-4 10 -10z m674 -51 c-3 -5 -10 -7 -15 -3 -5 3 -7 10 -3 15 3 5 10 7 15 3 5
-3 7 -10 3 -15z m-994 -24 c10 -12 10 -15 -4 -15 -9 0 -16 7 -16 15 0 8 2 15
4 15 2 0 9 -7 16 -15z m150 -5 c0 -5 -4 -10 -10 -10 -5 0 -10 5 -10 10 0 6 5
10 10 10 6 0 10 -4 10 -10z"/>
<path d="M4625 6128 c11 -52 25 -57 25 -10 0 32 -4 42 -16 42 -12 0 -14 -7 -9
-32z"/>
<path d="M3560 6105 c0 -8 4 -15 10 -15 5 0 7 7 4 15 -4 8 -8 15 -10 15 -2 0
-4 -7 -4 -15z"/>
<path d="M5615 5575 c4 -16 9 -39 10 -49 2 -21 26 -34 63 -35 30 -1 28 17 -3
31 -14 6 -25 16 -25 23 0 6 -12 22 -26 36 l-27 24 8 -30z"/>
<path d="M5078 5543 c7 -3 16 -2 19 1 4 3 -2 6 -13 5 -11 0 -14 -3 -6 -6z"/>
<path d="M5976 4971 c-4 -5 3 -7 14 -4 23 6 26 13 6 13 -8 0 -17 -4 -20 -9z"/>
<path d="M4230 4652 c-19 -2 -39 -8 -45 -13 -10 -10 90 -2 134 11 21 6 19 7
-14 7 -22 -1 -56 -3 -75 -5z"/>
<path d="M3915 4600 c-19 -8 -19 -9 2 -9 12 -1 25 4 28 9 7 12 -2 12 -30 0z"/>
<path d="M6091 4544 c0 -11 3 -14 6 -6 3 7 2 16 -1 19 -3 4 -6 -2 -5 -13z"/>
<path d="M6174 4518 c1 -7 16 -20 32 -28 29 -14 136 -41 142 -35 2 2 1 12 -2
23 -8 24 -34 32 -108 32 -31 0 -59 5 -61 10 -3 6 -4 5 -3 -2z"/>
<path d="M6088 4427 c-5 -10 -8 -28 -8 -40 0 -18 -2 -19 -10 -7 -5 8 -10 10
-10 4 0 -14 28 -39 36 -31 3 2 4 25 2 48 -2 31 -5 39 -10 26z"/>
<path d="M6160 4312 c0 -5 68 -32 81 -32 9 0 9 3 0 14 -10 12 -81 28 -81 18z"/>
<path d="M6075 4290 c-3 -5 1 -10 10 -10 9 0 13 5 10 10 -3 6 -8 10 -10 10 -2
0 -7 -4 -10 -10z"/>
<path d="M6159 4199 c27 -22 49 -26 32 -5 -6 8 -22 16 -34 19 -22 6 -22 6 2
-14z"/>
<path d="M6336 4178 c3 -4 9 -8 15 -8 5 0 9 4 9 8 0 5 -7 9 -15 9 -8 0 -12 -4
-9 -9z"/>
<path d="M6383 4148 c2 -12 8 -22 13 -20 14 3 11 35 -4 40 -8 2 -11 -4 -9 -20z"/>
<path d="M5890 4026 c0 -8 5 -18 10 -21 6 -3 10 1 10 9 0 8 -4 18 -10 21 -5 3
-10 -1 -10 -9z"/>
<path d="M5975 3800 c-3 -5 -1 -10 4 -10 6 0 11 5 11 10 0 6 -2 10 -4 10 -3 0
-8 -4 -11 -10z"/>
<path d="M6005 3700 c3 -5 8 -10 11 -10 2 0 4 5 4 10 0 6 -5 10 -11 10 -5 0
-7 -4 -4 -10z"/>
</g>
</svg>
